<?xml version="1.0" encoding="utf-8"?>
<!-- Generator: Adobe Illustrator 18.0.0, SVG Export Plug-In . SVG Version: 6.00 Build 0)  -->
<!DOCTYPE svg PUBLIC "-//W3C//DTD SVG 1.1//EN" "http://www.w3.org/Graphics/SVG/1.1/DTD/svg11.dtd">
<svg version="1.1"
	 id="svg22880" xmlns:dc="http://purl.org/dc/elements/1.1/" xmlns:svg="http://www.w3.org/2000/svg" xmlns:rdf="http://www.w3.org/1999/02/22-rdf-syntax-ns#" xmlns:cc="http://creativecommons.org/ns#"
	 xmlns="http://www.w3.org/2000/svg" xmlns:xlink="http://www.w3.org/1999/xlink" x="0px" y="0px" viewBox="0 0 300 208.1"
	 enable-background="new 0 0 300 208.1" xml:space="preserve">
<g id="g7356">
	<g id="g7366" transform="translate(431.0455,179.5372)">
		<g id="XMLID_1_">
			<g>
				<path d="M-254.6-36.7c1.4-0.7,8.5-4.7,7.1-9.7c-1.1-3.8-5.9-5.4-5.9-5.4s-30-9-48.7-15.1c-19.3-6.3-19.8-20-20-22.5
					c-1.1-15.2,10.5-21.5,12-22.3l0.9-0.4l0.3,0.5l-0.6,0.3c-1,0.5-6.7,3.7-5.9,7.8c0.8,4,5.8,5.4,5.8,5.4s30,9,48.6,15.1
					c19.3,6.3,19.9,20,20,22.5c1.2,16.8-11.3,23.2-13.3,24.2l-1.5,0.7L-256-36L-254.6-36.7z"/>
				<path d="M-281.5-179.5c19.9,0,36,16.1,36,36s-16.1,36-36,36c-19.9,0-36-16.1-36-36S-301.4-179.5-281.5-179.5z M-273.5-143.5
					c0-4.4-3.6-7.9-8-7.9c-4.4,0-8,3.6-8,7.9s3.6,8,8,8C-277.1-135.6-273.5-139.1-273.5-143.5z"/>
			</g>
			<g>
			</g>
		</g>
	</g>
</g>
</svg>
